<?xml version="1.0" encoding="utf-8"?>
<!-- Generator: Adobe Illustrator 16.0.0, SVG Export Plug-In . SVG Version: 6.00 Build 0)  -->
<!DOCTYPE svg PUBLIC "-//W3C//DTD SVG 1.1//EN" "http://www.w3.org/Graphics/SVG/1.1/DTD/svg11.dtd">
<svg version="1.1" id="Layer_1" xmlns="http://www.w3.org/2000/svg" xmlns:xlink="http://www.w3.org/1999/xlink" x="0px" y="0px"
	 width="35.043px" height="38.461px" viewBox="0 0 35.043 38.461" enable-background="new 0 0 35.043 38.461" xml:space="preserve">
<g>
	<g>
		<g>
			<path fill="#28B899" d="M19.649,18.864c-0.83,0-1.572,0.3-2.279,0.777l0.006-4.145l-2.803,0.755
				c0.005,0.668,0.005,1.604,0.005,2.541v3.321c0,1.873,0,3.782-0.018,5.654c0.849,0.566,2.049,0.885,3.428,0.885
				c3.216,0,5.177-1.856,5.177-5.267C23.166,20.86,22.036,18.864,19.649,18.864z M18.219,26.532c-0.212,0-0.602-0.07-0.849-0.193
				c0-0.707,0.018-1.256,0.018-2.209v-2.527c0.283-0.158,0.866-0.265,1.096-0.265c1.289,0,1.802,0.776,1.802,2.773
				C20.286,25.807,19.544,26.532,18.219,26.532z"/>
		</g>
	</g>
	<g>
		<path fill="#28B899" d="M31.812,34.876H4.938V11.83l26.908-7.287L31.812,34.876z M8.668,31.147h19.417l0.025-21.728L8.668,14.684
			V31.147z"/>
	</g>
</g>
</svg>
